<?xml version="1.0" encoding="utf-8"?>
<!-- Generator: Adobe Illustrator 16.0.0, SVG Export Plug-In . SVG Version: 6.00 Build 0)  -->
<!DOCTYPE svg PUBLIC "-//W3C//DTD SVG 1.1//EN" "http://www.w3.org/Graphics/SVG/1.1/DTD/svg11.dtd">
<svg version="1.1" id="Layer_1" xmlns="http://www.w3.org/2000/svg" xmlns:xlink="http://www.w3.org/1999/xlink" x="0px" y="0px"
	 width="841.89px" height="595.28px" viewBox="0 0 841.89 595.28" enable-background="new 0 0 841.89 595.28" xml:space="preserve">
<g>
	<path fill="#C4B02F" stroke="#C8B12F" d="M536.986,60.148c-8.391,3.068-17.074,5.938-26.027,8.589
		c-21.295,64.554-54.275,112.516-92.987,131.918c-38.713-19.402-71.691-67.365-92.989-131.918
		c-8.951-2.651-17.637-5.521-26.027-8.589c8.942,128.463,56.714,232.258,119.015,263.095l0,0c0,0,0,0,0.001,0l0,0l0,0
		C480.271,292.406,528.044,188.611,536.986,60.148z"/>
	<path fill="#FFFFFF" d="M320.915,152.25c3.702,14.619,7.967,28.577,12.741,41.762l27.654-27.971
		c-5.288-7.508-10.338-15.64-15.12-24.339L320.915,152.25z"/>
	<path fill="#FFFFFF" d="M368.652,175.863l-30.247,30.593c8.615,21.451,18.628,40.578,29.766,56.85l20.375-66.093
		C381.639,191.016,374.997,183.864,368.652,175.863z"/>
	<path fill="#FFFFFF" d="M515.026,152.25c-3.701,14.619-7.966,28.577-12.739,41.762l-27.654-27.971
		c5.289-7.508,10.337-15.64,15.121-24.339L515.026,152.25z"/>
	<path fill="#FFFFFF" d="M467.291,175.863l30.246,30.593c-8.615,21.451-18.627,40.578-29.766,56.85l-20.375-66.093
		C454.305,191.016,460.945,183.864,467.291,175.863z"/>
	<path fill="#FFFFFF" d="M458.636,275.691l-21.594-70.049c-6.187,4.547-12.552,8.357-19.07,11.379
		c-6.519-3.022-12.885-6.832-19.072-11.379l-21.593,70.049c12.475,15.662,26.137,27.924,40.664,36.11l0,0c0,0,0,0,0.001,0l0,0l0,0
		C432.498,303.615,446.16,291.354,458.636,275.691z"/>
	<ellipse fill="#239B9B" stroke="#149B9E" stroke-width="3" cx="417.972" cy="263.306" rx="20.285" ry="40.313"/>
</g>
<line fill="#149B9E" stroke="#149B9E" stroke-width="3" x1="222" y1="438.5" x2="614" y2="438.5"/>
<g>
	<g>
		<path fill="#239B9B" stroke="#149B9E" stroke-width="3" d="M230.458,370.244c-1.24-2.805-2.125-4.846-6.197-6.631l-1.948-0.85
			v-0.595h24.612v0.595l-0.709,0.255c-5.932,2.125-6.993,3.061-6.993,4.676c0,1.87,1.505,5.525,3.452,10.2l14.076,33.748h0.178
			l15.847-36.553c1.417-3.23,2.302-5.78,2.302-6.971c0-1.445-1.328-3.315-4.78-4.335l-3.453-1.021v-0.595h20.009v0.595l-1.506,0.595
			c-1.416,0.596-3.629,2.806-4.957,5.866l-24.169,54.233h-3.011L230.458,370.244z"/>
		<path fill="#239B9B" stroke="#149B9E" stroke-width="3" d="M316.955,371.944c0-5.61-1.771-6.546-6.108-7.905l-3.984-1.275v-0.595
			h52.057v13.346H358.3l-3.188-6.035c-1.328-2.551-1.947-3.91-5.489-3.91h-24.257c-0.178,2.125-0.266,4.165-0.266,6.29v17.767
			h20.097c2.479,0,3.187-1.105,4.691-3.91l2.479-4.761h0.619v21.252h-0.619l-2.479-4.761c-1.505-2.805-2.213-3.91-4.691-3.91
			h-20.097v18.956c0,2.126,0.088,4.166,0.266,6.291h23.726c4.781,0,5.844-0.851,8.677-6.461l2.124-4.165h0.62v14.536h-53.65v-0.595
			l3.984-1.275c4.338-1.36,6.108-2.295,6.108-7.056V371.944z"/>
		<path fill="#239B9B" stroke="#149B9E" stroke-width="3" d="M396.636,371.944c0-5.61-1.771-6.546-6.108-7.905l-3.984-1.275v-0.595
			h19.212l35.235,46.413h0.177v-36.638c0-5.61-1.771-6.546-6.108-7.905l-3.984-1.275v-0.595h24.789v0.595l-3.983,1.275
			c-4.339,1.359-6.109,2.295-6.109,7.905v51.514h-3.983l-40.901-53.129h-0.178v43.438c0,4.761,1.771,5.695,6.109,7.056l3.983,1.275
			v0.595h-24.258v-0.595l3.984-1.275c4.338-1.36,6.108-2.295,6.108-7.056V371.944z"/>
		<path fill="#239B9B" stroke="#149B9E" stroke-width="3" d="M485.522,371.944c0-5.61-1.771-6.546-6.108-7.905l-3.983-1.275v-0.595
			h28.33v0.595l-3.984,1.275c-4.338,1.359-6.108,2.295-6.108,7.905v28.223c0,14.365,8.41,19.381,18.414,19.381
			c11.244,0,18.326-5.95,18.326-19.381v-28.223c0-5.61-1.771-6.546-6.108-7.905l-3.984-1.275v-0.595h24.7v0.595l-3.896,1.275
			c-4.338,1.444-6.108,2.295-6.108,7.905v27.967c0,16.492-9.473,24.058-24.7,24.058c-19.211,0-24.789-9.606-24.789-24.058V371.944z"
			/>
		<path fill="#239B9B" stroke="#149B9E" stroke-width="3" d="M570.072,406.967h0.62c3.983,9.521,9.118,13.602,18.592,13.602
			c10.182,0,15.67-5.525,15.67-12.241c0-16.491-33.643-10.371-33.643-30.603c0-10.796,10.89-16.831,21.691-16.831
			c3.807,0,6.904,0.595,9.295,1.19c2.479,0.595,4.162,1.189,4.959,1.189c1.062,0,2.656-0.765,3.098-2.38h0.531v15.642h-0.619
			c-3.453-8.161-6.816-12.241-16.467-12.241c-7.172,0-14.343,3.995-14.343,11.815c0,15.217,34.173,10.286,34.173,30.688
			c0,8.416-7.967,17.172-23.283,17.172c-10.093,0-13.369-2.636-16.556-2.636c-1.417,0-2.479,1.36-3.099,2.636h-0.62V406.967z"/>
	</g>
</g>
<g>
	<path fill="#C8B12F" stroke="#C8B12F" d="M253.539,455.099h-0.202c-1.326-2.769-2.796-4.014-6.197-4.014
		c-5.448,0-7.812,4.041-7.812,9.217c0,5.065,2.364,9.106,7.812,9.106c3.891,0,5.333-1.743,6.255-3.985l0.173-0.554h0.202v5.646
		h-0.202c-0.115-0.332-0.375-0.664-1.038-0.664c-0.778,0-2.565,0.664-5.275,0.664c-7.091,0-11.328-4.29-11.328-10.38
		c0-5.868,4.756-10.158,11.328-10.158c1.413,0,2.623,0.194,3.545,0.36c0.922,0.193,1.557,0.387,1.816,0.387
		c0.346,0,0.663-0.442,0.721-0.747h0.202V455.099z"/>
	<path fill="#C8B12F" stroke="#C8B12F" d="M268.903,449.978c5.419,0,10.405,3.792,10.405,10.27c0,6.477-4.986,10.269-10.405,10.269
		c-5.39,0-10.376-3.792-10.376-10.269C258.527,453.77,263.513,449.978,268.903,449.978z M268.903,469.408
		c3.603,0,7.004-2.38,7.004-9.161c0-6.782-3.401-9.162-7.004-9.162c-3.574,0-6.976,2.38-6.976,9.162
		C261.928,467.028,265.329,469.408,268.903,469.408z"/>
	<path fill="#C8B12F" stroke="#C8B12F" d="M307.155,467.194c0,1.55,0.576,1.854,1.989,2.297l1.297,0.416v0.193h-9.224v-0.193
		l1.297-0.416c1.412-0.442,1.989-0.747,1.989-2.297v-14.394h-0.058l-7.754,14.864c-0.375,0.747-0.749,1.66-1.009,2.436h-0.547
		c-0.116-0.581-0.375-1.245-0.605-1.799l-7.465-15.501h-0.058v14.394c0,1.55,0.576,1.854,1.989,2.297l1.297,0.416v0.193h-8.07
		v-0.193l1.297-0.416c1.413-0.442,1.989-0.747,1.989-2.297v-13.618c0-1.827-0.576-2.132-1.989-2.574l-1.297-0.415v-0.194h6.975
		l7.033,14.726l7.725-14.726h6.485v0.194l-1.297,0.415c-1.413,0.442-1.989,0.747-1.989,2.574V467.194z"/>
	<path fill="#C8B12F" stroke="#C8B12F" d="M315.603,453.576c0-1.827-0.576-2.132-1.989-2.574l-1.297-0.415v-0.194h9.252
		c5.793,0,7.35,2.769,7.35,5.065c0,4.069-3.805,5.785-7.321,5.785c-0.894,0-2.076-0.056-3.344-0.139v6.09
		c0,1.55,0.577,1.854,1.989,2.297l1.297,0.416v0.193h-9.224v-0.193l1.297-0.416c1.413-0.442,1.989-0.747,1.989-2.297V453.576z
		 M318.254,459.887c0.634,0.056,1.182,0.083,1.989,0.083c4.036,0,5.505-2.131,5.505-4.4c0-2.354-1.556-4.069-5.159-4.069h-2.249
		c-0.058,0.692-0.086,1.356-0.086,2.048V459.887z"/>
	<path fill="#C8B12F" stroke="#C8B12F" d="M347.829,470.101h-16.631v-0.193l1.297-0.416c1.413-0.442,1.989-0.747,1.989-2.297
		v-13.618c0-1.827-0.576-2.132-1.989-2.574l-1.297-0.415v-0.194h9.224v0.194l-1.297,0.415c-1.412,0.442-1.989,0.747-1.989,2.574
		v13.203c0,0.691,0.029,1.356,0.086,2.048h7.091c1.153,0,1.499-0.276,2.104-1.439l1.21-2.38h0.202V470.101z"/>
	<path fill="#C8B12F" stroke="#C8B12F" d="M352.817,453.576c0-1.827-0.576-2.132-1.989-2.574l-1.297-0.415v-0.194h16.948v4.346
		h-0.202l-1.038-1.965c-0.433-0.83-0.634-1.273-1.787-1.273h-7.898c-0.058,0.692-0.086,1.356-0.086,2.048v5.785h6.543
		c0.807,0,1.038-0.359,1.528-1.273l0.807-1.55h0.202v6.92h-0.202l-0.807-1.55c-0.49-0.913-0.721-1.273-1.528-1.273h-6.543v6.173
		c0,0.691,0.029,1.356,0.086,2.048h7.725c1.556,0,1.902-0.276,2.825-2.104l0.691-1.356h0.202v4.733h-17.467v-0.193l1.297-0.416
		c1.413-0.442,1.989-0.747,1.989-2.297V453.576z"/>
	<path fill="#C8B12F" stroke="#C8B12F" d="M377.722,453.548c0-0.691-0.029-1.355-0.086-2.048h-4.381
		c-0.922,0-1.269,0.359-2.537,3.211l-0.259,0.581h-0.202v-4.899h17.583v4.899h-0.202l-0.259-0.581
		c-1.268-2.852-1.614-3.211-2.537-3.211h-4.381c-0.058,0.692-0.086,1.356-0.086,2.048v13.646c0,1.55,0.577,1.854,1.989,2.297
		l1.297,0.416v0.193h-9.224v-0.193l1.297-0.416c1.413-0.442,1.989-0.747,1.989-2.297V453.548z"/>
	<path fill="#C8B12F" stroke="#C8B12F" d="M392.712,453.576c0-1.827-0.576-2.132-1.989-2.574l-1.297-0.415v-0.194h16.948v4.346
		h-0.202l-1.038-1.965c-0.433-0.83-0.634-1.273-1.787-1.273h-7.898c-0.058,0.692-0.086,1.356-0.086,2.048v5.785h6.543
		c0.807,0,1.038-0.359,1.528-1.273l0.807-1.55h0.202v6.92h-0.202l-0.807-1.55c-0.49-0.913-0.721-1.273-1.528-1.273h-6.543v6.173
		c0,0.691,0.029,1.356,0.086,2.048h7.725c1.556,0,1.902-0.276,2.825-2.104l0.691-1.356h0.202v4.733h-17.467v-0.193l1.297-0.416
		c1.413-0.442,1.989-0.747,1.989-2.297V453.576z"/>
	<path fill="#C8B12F" stroke="#C8B12F" d="M427.131,462.544l-5.217-8.719c-1.183-1.966-1.471-2.27-2.479-2.769l-0.979-0.47v-0.194
		h8.271v0.194l-0.864,0.332c-0.692,0.276-1.557,0.608-1.557,1.107c0,0.415,0.347,1.052,0.605,1.467l4.295,7.169l3.718-6.532
		c0.26-0.443,0.807-1.329,0.807-1.966c0-0.581-0.922-0.969-1.729-1.245l-0.894-0.332v-0.194h6.86v0.194l-0.808,0.387
		c-1.095,0.526-1.557,1.163-2.248,2.408l-5.131,9.162v4.65c0,1.55,0.577,1.854,1.989,2.297l1.297,0.416v0.193h-9.224v-0.193
		l1.297-0.416c1.413-0.442,1.989-0.747,1.989-2.297V462.544z"/>
	<path fill="#C8B12F" stroke="#C8B12F" d="M450.537,449.978c5.418,0,10.404,3.792,10.404,10.27c0,6.477-4.986,10.269-10.404,10.269
		c-5.391,0-10.377-3.792-10.377-10.269C440.16,453.77,445.146,449.978,450.537,449.978z M450.537,469.408
		c3.603,0,7.004-2.38,7.004-9.161c0-6.782-3.401-9.162-7.004-9.162c-3.574,0-6.977,2.38-6.977,9.162
		C443.561,467.028,446.963,469.408,450.537,469.408z"/>
	<path fill="#C8B12F" stroke="#C8B12F" d="M466.709,453.576c0-1.827-0.576-2.132-1.988-2.574l-1.298-0.415v-0.194h9.224v0.194
		l-1.297,0.415c-1.412,0.442-1.988,0.747-1.988,2.574v9.189c0,4.678,2.738,6.311,5.994,6.311c3.661,0,5.967-1.938,5.967-6.311
		v-9.189c0-1.827-0.576-2.132-1.988-2.574l-1.297-0.415v-0.194h8.041v0.194l-1.268,0.415c-1.412,0.471-1.989,0.747-1.989,2.574
		v9.106c0,5.37-3.084,7.833-8.042,7.833c-6.254,0-8.07-3.128-8.07-7.833V453.576z"/>
	<path fill="#C8B12F" stroke="#C8B12F" d="M490.808,453.576c0-1.827-0.576-2.132-1.989-2.574l-1.297-0.415v-0.194h10.117
		c3.286,0,7.062,0.748,7.062,4.623c0,3.211-2.682,4.234-5.506,4.788v0.139c3.113,0.415,4.295,1.577,4.727,3.57l1.01,4.733
		c0.173,0.83,0.836,1.273,1.383,1.439l0.721,0.222v0.193h-3.861c-1.01,0-1.154-0.442-1.385-1.771l-0.864-4.788
		c-0.489-2.713-2.248-2.935-4.063-2.935h-3.402v6.588c0,1.55,0.577,1.854,1.989,2.297l1.298,0.416v0.193h-9.225v-0.193l1.297-0.416
		c1.413-0.442,1.989-0.747,1.989-2.297V453.576z M497.033,459.333c2.682,0,4.497-1.716,4.497-4.124c0-3.045-2.595-3.709-5.62-3.709
		h-2.364c-0.058,0.692-0.087,1.356-0.087,2.048v5.785H497.033z"/>
	<path fill="#C8B12F" stroke="#C8B12F" d="M534.42,470.101h-16.631v-0.193l1.297-0.416c1.412-0.442,1.988-0.747,1.988-2.297v-13.618
		c0-1.827-0.576-2.132-1.988-2.574l-1.297-0.415v-0.194h9.224v0.194l-1.298,0.415c-1.412,0.442-1.988,0.747-1.988,2.574v13.203
		c0,0.691,0.029,1.356,0.086,2.048h7.092c1.152,0,1.498-0.276,2.104-1.439l1.211-2.38h0.201V470.101z"/>
	<path fill="#C8B12F" stroke="#C8B12F" d="M547.537,449.978c5.418,0,10.404,3.792,10.404,10.27c0,6.477-4.986,10.269-10.404,10.269
		c-5.391,0-10.377-3.792-10.377-10.269C537.16,453.77,542.146,449.978,547.537,449.978z M547.537,469.408
		c3.603,0,7.004-2.38,7.004-9.161c0-6.782-3.401-9.162-7.004-9.162c-3.574,0-6.977,2.38-6.977,9.162
		C540.561,467.028,543.963,469.408,547.537,469.408z"/>
	<path fill="#C8B12F" stroke="#C8B12F" d="M572.27,449.978c5.419,0,10.405,3.792,10.405,10.27c0,6.477-4.986,10.269-10.405,10.269
		c-5.391,0-10.377-3.792-10.377-10.269C561.893,453.77,566.879,449.978,572.27,449.978z M572.27,469.408
		c3.604,0,7.004-2.38,7.004-9.161c0-6.782-3.4-9.162-7.004-9.162c-3.574,0-6.976,2.38-6.976,9.162
		C565.294,467.028,568.695,469.408,572.27,469.408z"/>
	<path fill="#C8B12F" stroke="#C8B12F" d="M588.874,453.576c0-1.827-0.576-2.132-1.989-2.574l-1.297-0.415v-0.194h9.225v0.194
		l-1.298,0.415c-1.412,0.442-1.989,0.747-1.989,2.574v6.006l7.928-6.754c0.662-0.581,1.037-0.83,1.037-1.218
		c0-0.332-0.548-0.525-1.009-0.691l-1.009-0.332v-0.194h7.35v0.194l-1.326,0.498c-1.325,0.498-1.844,0.747-3.141,1.854l-7.005,5.951
		l8.243,8.304c1.846,1.854,2.595,2.214,3.229,2.436l0.807,0.277v0.193h-8.646v-0.193l0.98-0.305
		c0.634-0.194,1.268-0.388,1.268-0.803c0-0.305-0.375-0.609-0.605-0.83l-8.1-8.222v7.446c0,1.55,0.577,1.854,1.989,2.297
		l1.298,0.416v0.193h-9.225v-0.193l1.297-0.416c1.413-0.442,1.989-0.747,1.989-2.297V453.576z"/>
	<path fill="#C8B12F" stroke="#C8B12F" d="M609.341,464.979h0.202c1.297,3.101,2.969,4.429,6.053,4.429
		c3.314,0,5.102-1.799,5.102-3.985c0-5.37-10.953-3.377-10.953-9.965c0-3.515,3.546-5.48,7.062-5.48
		c1.239,0,2.248,0.194,3.026,0.388c0.808,0.193,1.354,0.388,1.614,0.388c0.346,0,0.864-0.249,1.009-0.775h0.173v5.093h-0.201
		c-1.125-2.657-2.221-3.985-5.361-3.985c-2.336,0-4.67,1.301-4.67,3.848c0,4.954,11.126,3.349,11.126,9.992
		c0,2.74-2.595,5.591-7.581,5.591c-3.285,0-4.352-0.857-5.39-0.857c-0.462,0-0.808,0.442-1.009,0.857h-0.202V464.979z"/>
</g>
</svg>
